<?xml version="1.0" encoding="UTF-8" standalone="no"?>
<!-- Svg Vector Icons : http://www.onlinewebfonts.com/icon -->

<svg
   version="1.1"
   x="0px"
   y="0px"
   viewBox="0 0 256 256"
   enable-background="new 0 0 256 256"
   xml:space="preserve"
   id="svg12"
   sodipodi:docname="double_arrow_right_white.svg"
   inkscape:version="1.2 (dc2aedaf03, 2022-05-15)"
   xmlns:inkscape="http://www.inkscape.org/namespaces/inkscape"
   xmlns:sodipodi="http://sodipodi.sourceforge.net/DTD/sodipodi-0.dtd"
   xmlns="http://www.w3.org/2000/svg"
   xmlns:svg="http://www.w3.org/2000/svg"><defs
   id="defs16" /><sodipodi:namedview
   id="namedview14"
   pagecolor="#ffffff"
   bordercolor="#000000"
   borderopacity="0.25"
   inkscape:showpageshadow="2"
   inkscape:pageopacity="0.0"
   inkscape:pagecheckerboard="0"
   inkscape:deskcolor="#d1d1d1"
   showgrid="false"
   inkscape:zoom="2.3119077"
   inkscape:cx="94.294421"
   inkscape:cy="121.1121"
   inkscape:window-width="1920"
   inkscape:window-height="1017"
   inkscape:window-x="-8"
   inkscape:window-y="-8"
   inkscape:window-maximized="1"
   inkscape:current-layer="svg12" />
<metadata
   id="metadata2"> Svg Vector Icons : http://www.onlinewebfonts.com/icon </metadata>
<g
   id="g10"
   transform="matrix(0.59054134,0,0,1,52.393058,0)"
   style="fill:#ffffff;fill-opacity:1"><g
     id="g8"
     style="fill:#ffffff;fill-opacity:1"><path
       fill="#000000"
       d="m 96.2,127.1 v 0 0 L 13.9,40.9 C 0.1,27.7 26.3,0.1 41.1,12.9 l 103.2,104.9 c 5.2,5.2 4.8,14.1 0,18.5 L 41.1,241.2 C 26.3,254 0.2,226.4 13.9,213.2 Z"
       id="path4"
       style="fill:#ffffff;fill-opacity:1" /><path
       fill="#000000"
       d="m 194.2,129 v 0 0 L 111.9,42.8 C 98.1,29.6 124.3,2 139.1,14.8 l 103.2,104.9 c 5.2,5.2 4.8,14.1 0,18.5 L 139.1,243.1 c -14.8,12.8 -41,-14.8 -27.2,-28 z"
       id="path6"
       style="fill:#ffffff;fill-opacity:1" /></g></g>
</svg>
