<?xml version="1.0" encoding="UTF-8" standalone="no"?>
<!-- Created with Inkscape (http://www.inkscape.org/) -->

<svg
   width="125.29307"
   height="33.72282"
   viewBox="0 0 33.150457 8.922496"
   version="1.1"
   id="svg15862"
   inkscape:version="1.2 (dc2aedaf03, 2022-05-15)"
   sodipodi:docname="sea_sidewaves.svg"
   xml:space="preserve"
   xmlns:inkscape="http://www.inkscape.org/namespaces/inkscape"
   xmlns:sodipodi="http://sodipodi.sourceforge.net/DTD/sodipodi-0.dtd"
   xmlns:xlink="http://www.w3.org/1999/xlink"
   xmlns="http://www.w3.org/2000/svg"
   xmlns:svg="http://www.w3.org/2000/svg"><sodipodi:namedview
     id="namedview15864"
     pagecolor="#ffffff"
     bordercolor="#000000"
     borderopacity="0.25"
     inkscape:showpageshadow="2"
     inkscape:pageopacity="0.0"
     inkscape:pagecheckerboard="0"
     inkscape:deskcolor="#d1d1d1"
     inkscape:document-units="mm"
     showgrid="false"
     inkscape:zoom="33.743993"
     inkscape:cx="62.425926"
     inkscape:cy="24.745145"
     inkscape:window-width="1920"
     inkscape:window-height="1017"
     inkscape:window-x="-8"
     inkscape:window-y="-8"
     inkscape:window-maximized="1"
     inkscape:current-layer="layer6" /><defs
     id="defs15859"><linearGradient
       inkscape:collect="always"
       id="linearGradient63822"><stop
         style="stop-color:#905934;stop-opacity:1;"
         offset="0.6374824"
         id="stop63818" /><stop
         style="stop-color:#693c1e;stop-opacity:1;"
         offset="1"
         id="stop63820" /></linearGradient><radialGradient
       inkscape:collect="always"
       xlink:href="#linearGradient63822"
       id="radialGradient63826"
       cx="130.27475"
       cy="135.75935"
       fx="130.27475"
       fy="135.75935"
       r="45.47583"
       gradientTransform="matrix(1.3651535,-0.192196,0.06328649,0.44951901,-58.687777,104.65817)"
       gradientUnits="userSpaceOnUse" /></defs><g
     inkscape:label="Layer 1"
     id="layer1-5"
     transform="matrix(0.10983298,0,0,0.10983298,3.5722107,-11.562776)"
     style="display:none"><path
       style="fill:url(#radialGradient63826);fill-opacity:1;stroke:#000000;stroke-width:0.684856;stroke-linejoin:bevel;stroke-dasharray:none;stroke-opacity:1"
       d="m 85.085358,159.6896 c 0,0 29.815502,4.87977 77.818032,-1.78766 11.50593,-1.59814 18.80982,-31.284 18.80982,-31.284 0,0 -8.33746,2.61021 -17.65875,4.83933 -12.95902,3.09903 -20.05824,2.03424 -23.2981,4.84382 -3.22621,2.79774 -5.35979,5.95886 -6.26994,6.55473 -0.91016,0.59589 -59.665559,1.04281 -59.665559,1.04281 l 1.415794,7.89548 c 1.341906,6.70429 1.064047,11.95304 8.848703,7.89549 z"
       id="path37572"
       sodipodi:nodetypes="cscsssccc" /><path
       style="opacity:1;fill:#572f20;fill-opacity:1;stroke:#000000;stroke-width:0.684856;stroke-linejoin:bevel;stroke-dasharray:none;stroke-opacity:1"
       d="m 75.265721,141.85027 c 0.174106,-0.80167 0.09588,-1.87264 0.128399,-2.29515 l 0.05913,-0.76818 1.226005,-0.0844 c 0.674303,-0.0465 4.366031,-0.15611 8.203842,-0.24366 3.83781,-0.0875 10.641208,-0.2547 15.118643,-0.37146 4.47745,-0.11673 13.73825,-0.35117 20.57956,-0.5209 6.84131,-0.16973 12.53336,-0.36637 12.64897,-0.43696 2.41951,-3.38519 2.48213,-4.09164 5.93359,-6.158 l 18.5695,-1.68861 c 10.21323,-0.92873 24.03624,-2.67187 24.11967,-2.66637 0.2162,0.0143 -0.77522,0.30162 -4.84504,1.40435 -9.05299,2.45293 -18.69307,4.29525 -26.79616,5.29878 -5.9065,0.73149 -7.54635,1.12009 -9.10152,2.15681 -0.81495,0.54326 -2.99929,2.7276 -4.84958,4.84955 -0.83179,0.95392 -1.63304,1.82636 -1.78058,1.93874 -0.35038,0.2669 -5.613,0.46119 -18.04509,0.6662 -11.43478,0.18856 -33.170456,0.93567 -37.811344,0.93658 l -3.802862,0.0311 z"
       id="path51429"
       sodipodi:nodetypes="sscssssccssssssssccs" /><path
       style="opacity:1;fill:none;fill-opacity:1;stroke:#000000;stroke-width:0.827839;stroke-linejoin:bevel;stroke-dasharray:none;stroke-opacity:1"
       d="m 75.824337,149.49473 c 0,0 52.440423,0.46136 99.386803,-5.25366"
       id="path57368"
       sodipodi:nodetypes="cc" /><path
       style="fill:none;fill-opacity:1;stroke:#000000;stroke-width:0.827839;stroke-linejoin:bevel;stroke-dasharray:none;stroke-opacity:1"
       d="m 76.742844,154.56691 c 0,0 48.915286,0.70319 95.861666,-5.01183"
       id="path57368-5"
       sodipodi:nodetypes="cc" /><path
       style="opacity:1;fill:none;fill-opacity:1;stroke:#000000;stroke-width:0.827839;stroke-linejoin:bevel;stroke-dasharray:none;stroke-opacity:1"
       d="m 134.48642,142.85582 c 0,0 23.8711,0.17054 43.26358,-3.95534"
       id="path58420" /><path
       style="opacity:1;fill:none;fill-opacity:1;stroke:#000000;stroke-width:0.827839;stroke-linejoin:bevel;stroke-dasharray:none;stroke-opacity:1"
       d="m 85.085357,159.6896 c 0,0 52.906873,-0.20463 83.193433,-4.64775"
       id="path59199"
       sodipodi:nodetypes="cc" /><path
       style="opacity:1;fill:#a7673c;fill-opacity:1;stroke:#000000;stroke-width:0.827839;stroke-linecap:butt;stroke-linejoin:bevel;stroke-dasharray:none;stroke-opacity:1"
       d="m 113.36268,111.1658 11.66472,2.66814 -0.41283,3.17714 -11.43317,-3.57106 z"
       id="path61659"
       sodipodi:nodetypes="ccccc" /><path
       style="display:inline;opacity:1;fill:#9a5e37;fill-opacity:1;stroke:#000000;stroke-width:0.827839;stroke-linejoin:bevel;stroke-dasharray:none;stroke-opacity:1"
       d="m 116.43506,142.93097 0.34094,-37.24192 3.25222,0.20983 0.31474,37.37194 z"
       id="path61379" /></g><g
     inkscape:groupmode="layer"
     id="layer6"
     inkscape:label="SideWaves"
     style="display:inline"><path
       style="display:inline;fill:#7dadb5;fill-opacity:1;stroke:none;stroke-width:0.143952;stroke-linejoin:bevel;stroke-dasharray:none;stroke-opacity:1"
       d="m 11.752989,6.4996775 c 0.334487,1.8157827 2.259242,1.0106699 3.343638,1.1604771 0.915296,0.1264468 1.753204,0.012762 2.671226,-0.048603 0.64992,-0.043446 1.344154,-0.2430884 1.991219,-0.099423 0.875331,0.1943449 1.593671,-0.1213595 2.399316,-0.7474104 0.0727,-0.056493 0.643173,-0.9909046 0.501818,-1.1373641 -2.580343,0.3472969 -5.487235,0.4489059 -8.201583,0.1949757 -0.613433,-0.04889 -1.224168,0.064993 -1.834771,0.064993 -0.220827,0 -0.613869,-0.1438719 -0.815454,0.064993 -0.124175,0.1286597 -0.246408,0.472581 -0.05541,0.5473627 z"
       id="path75484"
       sodipodi:nodetypes="cssssccsssc" /><path
       style="display:inline;fill:none;fill-opacity:1;stroke:#4a838c;stroke-width:0.2;stroke-linecap:butt;stroke-linejoin:bevel;stroke-dasharray:none;stroke-opacity:1;paint-order:normal"
       d="m 33.866666,25.797477 c 0.220348,0.0897 0.391631,-0.05304 0.554892,-0.189092 0.257792,-0.214827 0.104519,0.128187 0.501817,0.203864 0.264694,0.05042 1.393743,0.125661 1.615228,0.06273 0.03397,-0.0097 -0.04818,-0.05167 -0.07226,-0.0775"
       id="path35337"
       transform="translate(-20.390855,-19.81098)" /><path
       style="display:inline;fill:none;fill-opacity:1;stroke:#4a838c;stroke-width:0.2;stroke-linecap:butt;stroke-linejoin:bevel;stroke-dasharray:none;stroke-opacity:1;paint-order:normal"
       d="m 35.237068,27.145202 c 0.194265,-0.0309 0.387326,0.0033 0.58017,-0.04705 0.212503,-0.05543 0.222978,-0.260466 0.392046,-0.345 0.04605,-0.02302 0.0397,0.09509 0.06273,0.141136 0.02841,0.05683 0.156183,0.08773 0.203864,0.09409 0.501036,0.06681 1.049806,0.151665 1.552498,0.109773"
       id="path35339"
       transform="translate(-20.390855,-19.81098)" /></g></svg>
