<?xml version="1.0" encoding="UTF-8" standalone="no"?>
<!-- Created with Inkscape (http://www.inkscape.org/) -->

<svg
   width="125.29307"
   height="33.72282"
   viewBox="0 0 33.150457 8.922496"
   version="1.1"
   id="svg15862"
   inkscape:version="1.2 (dc2aedaf03, 2022-05-15)"
   sodipodi:docname="sea_boat.svg"
   xml:space="preserve"
   xmlns:inkscape="http://www.inkscape.org/namespaces/inkscape"
   xmlns:sodipodi="http://sodipodi.sourceforge.net/DTD/sodipodi-0.dtd"
   xmlns:xlink="http://www.w3.org/1999/xlink"
   xmlns="http://www.w3.org/2000/svg"
   xmlns:svg="http://www.w3.org/2000/svg"><sodipodi:namedview
     id="namedview15864"
     pagecolor="#ffffff"
     bordercolor="#000000"
     borderopacity="0.25"
     inkscape:showpageshadow="2"
     inkscape:pageopacity="0.0"
     inkscape:pagecheckerboard="0"
     inkscape:deskcolor="#d1d1d1"
     inkscape:document-units="mm"
     showgrid="false"
     inkscape:zoom="16.871996"
     inkscape:cx="61.196078"
     inkscape:cy="28.449508"
     inkscape:window-width="1920"
     inkscape:window-height="1017"
     inkscape:window-x="-8"
     inkscape:window-y="-8"
     inkscape:window-maximized="1"
     inkscape:current-layer="layer6" /><defs
     id="defs15859"><linearGradient
       inkscape:collect="always"
       id="linearGradient63822"><stop
         style="stop-color:#905934;stop-opacity:1;"
         offset="0.6374824"
         id="stop63818" /><stop
         style="stop-color:#693c1e;stop-opacity:1;"
         offset="1"
         id="stop63820" /></linearGradient><radialGradient
       inkscape:collect="always"
       xlink:href="#linearGradient63822"
       id="radialGradient63826"
       cx="130.27475"
       cy="135.75935"
       fx="130.27475"
       fy="135.75935"
       r="45.47583"
       gradientTransform="matrix(1.3651535,-0.192196,0.06328649,0.44951901,-58.687777,104.65817)"
       gradientUnits="userSpaceOnUse" /></defs><g
     inkscape:label="Layer 1"
     id="layer1-5"
     transform="matrix(0.10983298,0,0,0.10983298,3.5722107,-11.562776)"
     style="display:inline"><path
       style="fill:url(#radialGradient63826);fill-opacity:1;stroke:#000000;stroke-width:0.684856;stroke-linejoin:bevel;stroke-dasharray:none;stroke-opacity:1"
       d="m 85.085358,159.6896 c 0,0 29.815502,4.87977 77.818032,-1.78766 11.50593,-1.59814 18.80982,-31.284 18.80982,-31.284 0,0 -8.33746,2.61021 -17.65875,4.83933 -12.95902,3.09903 -20.05824,2.03424 -23.2981,4.84382 -3.22621,2.79774 -5.35979,5.95886 -6.26994,6.55473 -0.91016,0.59589 -59.665559,1.04281 -59.665559,1.04281 l 1.415794,7.89548 c 1.341906,6.70429 1.064047,11.95304 8.848703,7.89549 z"
       id="path37572"
       sodipodi:nodetypes="cscsssccc" /><path
       style="opacity:1;fill:#572f20;fill-opacity:1;stroke:#000000;stroke-width:0.684856;stroke-linejoin:bevel;stroke-dasharray:none;stroke-opacity:1"
       d="m 75.265721,141.85027 c 0.174106,-0.80167 0.09588,-1.87264 0.128399,-2.29515 l 0.05913,-0.76818 1.226005,-0.0844 c 0.674303,-0.0465 4.366031,-0.15611 8.203842,-0.24366 3.83781,-0.0875 10.641208,-0.2547 15.118643,-0.37146 4.47745,-0.11673 13.73825,-0.35117 20.57956,-0.5209 6.84131,-0.16973 12.53336,-0.36637 12.64897,-0.43696 2.41951,-3.38519 2.48213,-4.09164 5.93359,-6.158 l 18.5695,-1.68861 c 10.21323,-0.92873 24.03624,-2.67187 24.11967,-2.66637 0.2162,0.0143 -0.77522,0.30162 -4.84504,1.40435 -9.05299,2.45293 -18.69307,4.29525 -26.79616,5.29878 -5.9065,0.73149 -7.54635,1.12009 -9.10152,2.15681 -0.81495,0.54326 -2.99929,2.7276 -4.84958,4.84955 -0.83179,0.95392 -1.63304,1.82636 -1.78058,1.93874 -0.35038,0.2669 -5.613,0.46119 -18.04509,0.6662 -11.43478,0.18856 -33.170456,0.93567 -37.811344,0.93658 l -3.802862,0.0311 z"
       id="path51429"
       sodipodi:nodetypes="sscssssccssssssssccs" /><path
       style="opacity:1;fill:none;fill-opacity:1;stroke:#000000;stroke-width:0.827839;stroke-linejoin:bevel;stroke-dasharray:none;stroke-opacity:1"
       d="m 75.824337,149.49473 c 0,0 52.440423,0.46136 99.386803,-5.25366"
       id="path57368"
       sodipodi:nodetypes="cc" /><path
       style="fill:none;fill-opacity:1;stroke:#000000;stroke-width:0.827839;stroke-linejoin:bevel;stroke-dasharray:none;stroke-opacity:1"
       d="m 76.742844,154.56691 c 0,0 48.915286,0.70319 95.861666,-5.01183"
       id="path57368-5"
       sodipodi:nodetypes="cc" /><path
       style="opacity:1;fill:none;fill-opacity:1;stroke:#000000;stroke-width:0.827839;stroke-linejoin:bevel;stroke-dasharray:none;stroke-opacity:1"
       d="m 134.48642,142.85582 c 0,0 23.8711,0.17054 43.26358,-3.95534"
       id="path58420" /><path
       style="opacity:1;fill:none;fill-opacity:1;stroke:#000000;stroke-width:0.827839;stroke-linejoin:bevel;stroke-dasharray:none;stroke-opacity:1"
       d="m 85.085357,159.6896 c 0,0 52.906873,-0.20463 83.193433,-4.64775"
       id="path59199"
       sodipodi:nodetypes="cc" /><path
       style="opacity:1;fill:#a7673c;fill-opacity:1;stroke:#000000;stroke-width:0.827839;stroke-linecap:butt;stroke-linejoin:bevel;stroke-dasharray:none;stroke-opacity:1"
       d="m 113.36268,111.1658 11.66472,2.66814 -0.41283,3.17714 -11.43317,-3.57106 z"
       id="path61659"
       sodipodi:nodetypes="ccccc" /><path
       style="display:inline;opacity:1;fill:#9a5e37;fill-opacity:1;stroke:#000000;stroke-width:0.827839;stroke-linejoin:bevel;stroke-dasharray:none;stroke-opacity:1"
       d="m 116.43506,142.93097 0.34094,-37.24192 3.25222,0.20983 0.31474,37.37194 z"
       id="path61379" /></g><g
     inkscape:groupmode="layer"
     id="layer6"
     inkscape:label="SideWaves"
     style="display:none"><g
       id="g73827"
       style="display:inline"
       transform="matrix(0.10983298,0,0,0.10983298,3.5722108,-11.562776)"><path
         style="fill:none;fill-opacity:1;stroke:#d7d7d7;stroke-width:0.910474;stroke-linejoin:bevel;stroke-dasharray:none;stroke-opacity:1"
         d="m 167.67915,157.36791 c 0.65306,-1.73904 7.42474,-5.19192 8.68254,-3.93412 0.5497,0.5497 -1.20713,3.37246 -1.61536,1.57455"
         id="path72282" /><path
         style="fill:none;fill-opacity:1;stroke:#d7d7d7;stroke-width:0.910474;stroke-linejoin:bevel;stroke-dasharray:none;stroke-opacity:1"
         d="m 172.65453,152.07627 c 1.16841,-0.82632 2.24158,-1.80727 3.50524,-2.47895 2.86118,-1.52084 2.64725,0.45062 1.51439,2.01919 -0.84366,1.16815 -2.021,-0.20192 -0.75165,-0.20192"
         id="path72284" /><path
         style="fill:none;fill-opacity:1;stroke:#d7d7d7;stroke-width:0.910474;stroke-linejoin:bevel;stroke-dasharray:none;stroke-opacity:1"
         d="m 160.68285,158.20392 c 0.38021,0.22724 0.70531,0.59992 1.14063,0.68169 1.20974,0.22724 3.19916,-0.40383 4.44223,-0.40383 0.10838,0 2.0595,0.46449 1.41344,1.11055 -0.47316,0.47316 -1.41344,-0.42806 -1.41344,0.51118"
         id="path72288" /><path
         style="fill:none;fill-opacity:1;stroke:#d7d7d7;stroke-width:0.910474;stroke-linejoin:bevel;stroke-dasharray:none;stroke-opacity:1"
         d="m 114.53797,163.67245 c 2.08739,-0.85248 8.63044,-1.71718 10.63701,-0.71389 0.58134,0.29067 -1.65726,1.42261 -1.78473,0.78528"
         id="path73041" /><path
         style="fill:none;fill-opacity:1;stroke:#d7d7d7;stroke-width:0.910474;stroke-linejoin:bevel;stroke-dasharray:none;stroke-opacity:1"
         d="m 131.88558,163.22213 c 2.69366,-2.79342 6.8344,-2.16632 10.28006,-1.47719 0.0729,0.0147 -1.20635,0.72306 -2.14168,0.85667"
         id="path73049" /><path
         style="fill:none;fill-opacity:1;stroke:#d7d7d7;stroke-width:0.910474;stroke-linejoin:bevel;stroke-dasharray:none;stroke-opacity:1"
         d="m 145.02121,162.11999 c 0.11898,0.0653 0.22167,0.18483 0.35695,0.19606 1.1351,0.0941 4.38555,-2.14233 7.06754,-1.78473 0.19368,0.0258 1.50814,0.58432 1.64196,0.6425 2.76976,1.20425 -0.13375,0.78582 -1.28501,0.94616"
         id="path73053" /><path
         style="fill:none;fill-opacity:1;stroke:#d7d7d7;stroke-width:0.910474;stroke-linejoin:bevel;stroke-dasharray:none;stroke-opacity:1"
         d="m 96.904812,164.39196 c 2.957515,-1.8081 8.153228,-3.41777 11.493678,-1.93313 0.1171,0.0521 0.35695,0.0147 0.35695,0.14278 0,1.25775 -4.19372,0.97457 -4.7117,0.93651"
         id="path73061" /><path
         style="fill:none;fill-opacity:1;stroke:#d7d7d7;stroke-width:0.910474;stroke-linejoin:bevel;stroke-dasharray:none;stroke-opacity:1"
         d="m 81.556107,163.09908 c 0.475129,0.24746 10.420665,-3.24269 8.638109,-0.56886 -0.402313,0.60348 -1.845331,0.20501 -2.213069,0.56886"
         id="path73067" /></g></g></svg>
