<?xml version="1.0" encoding="UTF-8" standalone="no"?>
<!-- Created with Inkscape (http://www.inkscape.org/) -->

<svg
   width="125.29307"
   height="33.72282"
   viewBox="0 0 33.150457 8.922496"
   version="1.1"
   id="svg15862"
   inkscape:version="1.2 (dc2aedaf03, 2022-05-15)"
   sodipodi:docname="sea_front.svg"
   xmlns:inkscape="http://www.inkscape.org/namespaces/inkscape"
   xmlns:sodipodi="http://sodipodi.sourceforge.net/DTD/sodipodi-0.dtd"
   xmlns="http://www.w3.org/2000/svg"
   xmlns:svg="http://www.w3.org/2000/svg">
  <sodipodi:namedview
     id="namedview15864"
     pagecolor="#ffffff"
     bordercolor="#000000"
     borderopacity="0.25"
     inkscape:showpageshadow="2"
     inkscape:pageopacity="0.0"
     inkscape:pagecheckerboard="0"
     inkscape:deskcolor="#d1d1d1"
     inkscape:document-units="mm"
     showgrid="false"
     inkscape:zoom="16.871996"
     inkscape:cx="66.411821"
     inkscape:cy="18.373641"
     inkscape:window-width="1920"
     inkscape:window-height="1017"
     inkscape:window-x="-8"
     inkscape:window-y="-8"
     inkscape:window-maximized="1"
     inkscape:current-layer="layer3" />
  <defs
     id="defs15859" />
  <g
     inkscape:label="Layer 1"
     inkscape:groupmode="layer"
     id="layer1"
     style="display:none"
     transform="translate(-14.198165,-20.592153)">
    <path
       style="fill:#7dadb5;fill-opacity:1;stroke:none;stroke-width:0.084;stroke-linecap:butt;stroke-linejoin:bevel;stroke-dasharray:none;stroke-opacity:1;paint-order:normal"
       d="m 47.152882,26.17092 c -2.783832,7.376768 -32.850842,0.246555 -32.850842,0.246555 0,0 0.609945,-2.7023 11.080707,-2.833528 1.246548,-0.01562 15.913293,-0.506174 16.293753,0.142742 0.38046,0.648916 6.869761,-0.678458 5.476382,2.444231 z"
       id="path23858-2"
       sodipodi:nodetypes="ccssc" />
    <path
       style="fill:none;fill-opacity:1;stroke:#4a838c;stroke-width:0.2;stroke-linecap:butt;stroke-linejoin:bevel;stroke-dasharray:none;stroke-opacity:1;paint-order:normal"
       d="m 29.345355,24.019902 c 0.05044,0.07171 0.61604,-0.427497 0.716661,-0.293333 0.06902,0.09203 0.115226,0.202498 0.203864,0.282272 0.04742,0.04267 0.580816,0.266514 0.595908,0.203863 0.01894,-0.07867 0.01783,-0.160857 0.02676,-0.241285"
       id="path35053" />
    <path
       style="fill:none;fill-opacity:1;stroke:#7dadb5;stroke-width:0.1;stroke-linecap:butt;stroke-linejoin:bevel;stroke-dasharray:none;stroke-opacity:1;paint-order:normal"
       d="m 18.075181,26.057872 c 0.150266,-0.008 0.321088,-0.02133 0.465726,-0.06653 0.222505,-0.06953 0.461504,-0.151481 0.665322,-0.266129 0.07514,-0.04227 0.18322,-0.210173 0.221775,-0.133064 0.02696,0.05392 -0.01589,0.09814 0.02218,0.155242 0.106044,0.159066 1.199669,0.310483 1.419355,0.310483"
       id="path17347-5" />
    <path
       style="fill:none;fill-opacity:1;stroke:#4a838c;stroke-width:0.2;stroke-linecap:butt;stroke-linejoin:bevel;stroke-dasharray:none;stroke-opacity:1;paint-order:normal"
       d="m 38.198761,28.824374 c 0.34232,0.149636 0.716377,-0.477578 1.010917,-0.403944 0.156583,0.03914 0.399851,0.333039 0.554434,0.42137 0.308018,0.176011 0.947179,0.303451 1.134676,0.321522"
       id="path35027" />
    <path
       style="fill:none;fill-opacity:1;stroke:#4a838c;stroke-width:0.2;stroke-linecap:butt;stroke-linejoin:bevel;stroke-dasharray:none;stroke-opacity:1;paint-order:normal"
       d="m 30.312926,28.478154 c 0.148283,0.109773 0.32008,0.0108 0.470455,-0.04705 0.176107,-0.06773 0.344329,-0.114552 0.501817,-0.219544 0.06273,-0.04182 0.129313,-0.17255 0.188182,-0.125454 0.359487,0.287591 0.520028,0.459591 1.034997,0.595907 0.412203,0.109112 0.834031,0.183084 1.254546,0.25091 0.219874,0.03546 0.221208,0.03136 0.103743,0.03136"
       id="path35037" />
    <path
       style="fill:none;fill-opacity:1;stroke:#4a838c;stroke-width:0.2;stroke-linecap:butt;stroke-linejoin:bevel;stroke-dasharray:none;stroke-opacity:1;paint-order:normal"
       d="m 34.986102,24.323719 c 0.365395,0.397477 0.828559,0.323471 1.28591,0.412068"
       id="path35055" />
    <path
       style="fill:none;fill-opacity:1;stroke:#4a838c;stroke-width:0.2;stroke-linecap:butt;stroke-linejoin:bevel;stroke-dasharray:none;stroke-opacity:1;paint-order:normal"
       d="m 33.866666,25.797477 c 0.220348,0.0897 0.391631,-0.05304 0.554892,-0.189092 0.257792,-0.214827 0.104519,0.128187 0.501817,0.203864 0.264694,0.05042 1.393743,0.125661 1.615228,0.06273 0.03397,-0.0097 -0.04818,-0.05167 -0.07226,-0.0775"
       id="path35337" />
    <path
       style="fill:none;fill-opacity:1;stroke:#4a838c;stroke-width:0.2;stroke-linecap:butt;stroke-linejoin:bevel;stroke-dasharray:none;stroke-opacity:1;paint-order:normal"
       d="m 35.237068,27.145202 c 0.194265,-0.0309 0.387326,0.0033 0.58017,-0.04705 0.212503,-0.05543 0.222978,-0.260466 0.392046,-0.345 0.04605,-0.02302 0.0397,0.09509 0.06273,0.141136 0.02841,0.05683 0.156183,0.08773 0.203864,0.09409 0.501036,0.06681 1.049806,0.151665 1.552498,0.109773"
       id="path35339" />
    <path
       style="fill:none;fill-opacity:1;stroke:#4a838c;stroke-width:0.2;stroke-linecap:butt;stroke-linejoin:bevel;stroke-dasharray:none;stroke-opacity:1;paint-order:normal"
       d="m 37.714737,25.718639 c 0.152268,0.06491 0.31654,0.02203 0.470456,-0.03185 0.123737,-0.04331 0.242199,-0.100696 0.36068,-0.156818 0.08031,-0.03804 0.157546,-0.0823 0.235228,-0.125454 0.02286,-0.01269 0.04976,-0.06974 0.06273,-0.04705 0.16996,0.297431 0.219003,0.406741 0.627271,0.454773 0.449136,0.05284 0.285817,0.0894 0.392044,-0.01477"
       id="path35341" />
    <path
       style="fill:none;fill-opacity:1;stroke:#4a838c;stroke-width:0.2;stroke-linecap:butt;stroke-linejoin:bevel;stroke-dasharray:none;stroke-opacity:1;paint-order:normal"
       d="m 41.227462,25.608757 c 0.08134,-0.164063 0.264067,-0.266878 0.407725,-0.376735 0.07393,-0.05654 0.167921,-0.249938 0.219546,-0.1725 0.06704,0.100555 0.0062,0.252046 0.172501,0.282272 0.203205,0.03695 0.521351,-0.09353 0.70568,-0.08822"
       id="path35343" />
    <path
       style="fill:none;fill-opacity:1;stroke:#4a838c;stroke-width:0.2;stroke-linecap:butt;stroke-linejoin:bevel;stroke-dasharray:none;stroke-opacity:1;paint-order:normal"
       d="m 20.26089,25.522254 c 0.212302,0.125199 0.418943,-0.105409 0.627272,-0.07069 0.08544,0.01424 0.148126,0.128352 0.250909,0.09409 0.3521,-0.117367 0.720468,-0.228025 1.050681,-0.29208"
       id="path35347" />
    <path
       style="fill:none;fill-opacity:1;stroke:#4a838c;stroke-width:0.2;stroke-linecap:butt;stroke-linejoin:bevel;stroke-dasharray:none;stroke-opacity:1;paint-order:normal"
       d="m 24.306795,25.155404 c 0.169529,0.127811 0.493384,-0.09836 0.627272,-0.158609 0.195066,-0.08778 0.395791,-0.199885 0.595909,-0.266591 0.0021,-6.88e-4 0.07155,0.160748 0.07841,0.1725 0.0577,0.09892 0.159288,0.190047 0.266591,0.235227 0.365947,0.154083 0.852377,0.106013 1.160453,0.01747"
       id="path35441" />
    <path
       style="fill:none;fill-opacity:1;stroke:#4a838c;stroke-width:0.2;stroke-linecap:butt;stroke-linejoin:bevel;stroke-dasharray:none;stroke-opacity:1;paint-order:normal"
       d="m 26.141566,26.46404 c 0.338611,-0.02188 0.696706,-0.0081 1.003636,-0.212701 0.258204,-0.172136 0.356933,-0.366929 0.407725,-0.282272 0.11207,0.18678 0.198451,0.254008 0.423411,0.221723"
       id="path35443" />
    <path
       style="fill:none;fill-opacity:1;stroke:#4a838c;stroke-width:0.2;stroke-linecap:butt;stroke-linejoin:bevel;stroke-dasharray:none;stroke-opacity:1;paint-order:normal"
       d="m 31.55179,24.833961 c 0.571976,0.03803 0.679466,-0.0011 1.14477,-0.291939 0.548666,-0.342915 0.02096,-0.02854 0.313637,-0.188181 0.03309,-0.01805 0.08217,-0.09849 0.09409,-0.06273 0.04115,0.123441 0.03008,0.287131 0.125455,0.392046 0.08053,0.08859 0.313634,0.07165 0.313634,0.150802"
       id="path35445" />
    <path
       style="fill:none;fill-opacity:1;stroke:#4a838c;stroke-width:0.2;stroke-linecap:butt;stroke-linejoin:bevel;stroke-dasharray:none;stroke-opacity:1;paint-order:normal"
       d="m 26.721792,23.963646 c 0.05892,0.130908 0.141282,0.168968 0.282273,0.139286 0.307549,-0.06475 0.534048,-0.328016 0.564544,-0.282273 0.02958,0.04438 0.03708,0.133072 0.07841,0.188182 0.06023,0.0803 0.548864,0.333614 0.548864,0.173347"
       id="path35447" />
    <path
       style="fill:none;fill-opacity:1;stroke:#4a838c;stroke-width:0.2;stroke-linecap:butt;stroke-linejoin:bevel;stroke-dasharray:none;stroke-opacity:1;paint-order:normal"
       d="m 37.855874,24.256042 c 0.136382,0.08423 0.330774,0.06226 0.486135,0.05075 0.198008,-0.01467 0.396269,-0.06755 0.580228,-0.141136 0.01638,-0.0065 0.319154,-0.228836 0.329316,-0.188182 0.02843,0.1137 -0.02117,0.274028 0.04705,0.376364 0.159107,0.23866 0.756341,0.282736 0.95659,0.281494"
       id="path35449" />
    <path
       style="display:inline;fill:none;fill-opacity:1;stroke:#4a838c;stroke-width:0.2;stroke-linecap:butt;stroke-linejoin:bevel;stroke-dasharray:none;stroke-opacity:1;paint-order:normal"
       d="m 41.185031,27.212118 c 0.151167,0.234002 0.665167,-0.365572 0.748112,-0.27078 0.165433,0.189068 0.253714,0.451104 0.486134,0.580226 0.372915,0.207174 1.074809,0.101227 1.474092,0.07841 0.05245,-0.003 0.123828,-0.05656 0.156816,-0.01569 0.05473,0.06782 0.02606,0.172329 0.03911,0.258493"
       id="path35067" />
    <path
       style="fill:none;fill-opacity:1;stroke:#4a838c;stroke-width:0.2;stroke-linecap:butt;stroke-linejoin:bevel;stroke-dasharray:none;stroke-opacity:1;paint-order:normal"
       d="m 15.862144,25.522254 c 0.125129,0.04394 0.300627,-0.04451 0.415568,-0.09421 0.03062,-0.01324 0.535506,-0.272107 0.556704,-0.250908 0.03485,0.03484 0.06196,0.11727 0.09409,0.156818 0.139551,0.171754 0.46626,0.227905 0.658636,0.282272 0.271381,0.07669 0.417264,0.115655 0.674317,0.148977 0.158636,0.02056 0.335371,0.0054 0.486136,0.04986"
       id="path35539" />
    <path
       style="fill:none;fill-opacity:1;stroke:#4a838c;stroke-width:0.2;stroke-linecap:butt;stroke-linejoin:bevel;stroke-dasharray:none;stroke-opacity:1;paint-order:normal"
       d="m 18.362903,24.635335 c 1.139901,-0.462893 0.604067,-0.156142 1.818548,0.225552 0.100442,0.03157 1.205185,0.152278 1.027993,0.198531"
       id="path35543" />
  </g>
  <g
     inkscape:groupmode="layer"
     id="layer5"
     inkscape:label="Back Waves"
     style="display:none"
     transform="translate(-14.198165,-20.592153)">
    <path
       style="fill:#7dadb5;fill-opacity:1;stroke:#000000;stroke-width:0.20775;stroke-linecap:round;stroke-linejoin:bevel;stroke-dasharray:none;stroke-opacity:1;paint-order:normal"
       d="m 30.88855,23.971419 c 0.396439,0.05738 1.960527,-1.147687 2.096352,-1.147687 3.01e-4,0 -0.06912,0.353292 -0.06912,0.391626 0,0.210829 0.302759,0.304851 0.448401,0.43506"
       id="path17209-3" />
    <g
       id="g35802">
      <path
         style="fill:none;fill-opacity:1;stroke:#4a838c;stroke-width:0.2;stroke-linecap:butt;stroke-linejoin:bevel;stroke-dasharray:none;stroke-opacity:1;paint-order:normal"
         d="m 29.591563,26.46404 c 0.460957,0.15353 1.230405,-0.644156 1.489771,-0.557701 0.02225,0.0074 0.19146,0.244502 0.313637,0.297955 0.375261,0.164177 0.842804,0.165576 1.223179,0.183719"
         id="path35335" />
      <g
         id="g35194">
        <path
           style="fill:#7dadb5;fill-opacity:1;stroke:#000000;stroke-width:0.20775;stroke-linecap:round;stroke-linejoin:bevel;stroke-dasharray:none;stroke-opacity:1;paint-order:normal"
           d="m 23.974587,25.430141 c 0.549592,-0.146505 1.077359,-0.350971 1.607898,-0.563185 0.646134,-0.258457 1.264465,-0.60767 1.889582,-0.912213 0.20875,-0.101694 1.617459,-1.058817 1.628948,-1.058817 0.01413,0 -0.114029,0.202514 -0.114029,0.390948 0,0.266433 0.142869,0.560633 0.358369,0.733028 0.624605,0.499679 1.342614,0.777199 2.085055,1.058816 0.277185,0.105143 0.622863,0.293212 0.928503,0.293212"
           id="path17203-4" />
        <path
           style="fill:#4a838c;fill-opacity:1;stroke:none;stroke-width:0.2;stroke-linecap:butt;stroke-linejoin:bevel;stroke-dasharray:none;stroke-opacity:1;paint-order:normal"
           d="m 23.49924,25.824904 c 0,0.364157 0.670215,-0.100004 1.001848,-0.16633 0.523079,-0.104616 1.388694,-0.307955 1.901713,-0.454532 0.05112,-0.0146 0.334195,-0.153708 0.343752,-0.144153 0.06682,0.06683 0.06046,0.377944 0.08871,0.476814 0.08783,0.307405 0.31937,0.607678 0.532257,0.820565 0.109315,0.109314 0.205965,0.241354 0.299394,0.365927 0.07018,0.09357 0.136372,0.177419 0.133065,0.177419 -0.262065,0 -0.507397,-0.07832 -0.76512,-0.0998 -0.188629,-0.01572 -1.299012,0.518132 -1.485888,0.480752 -0.516151,-1.440298 -1.68913,0.03023 -2.049731,-1.456662 z"
           id="path32932-1"
           sodipodi:nodetypes="csscssssscc" />
        <path
           style="fill:none;fill-opacity:1;stroke:#4a838c;stroke-width:0.2;stroke-linecap:butt;stroke-linejoin:bevel;stroke-dasharray:none;stroke-opacity:1;paint-order:normal"
           d="m 27.615655,25.059418 c 0.158514,0.136019 0.088,0.130008 0.345001,0.01579 0.09205,-0.04091 0.435977,-0.345 0.501816,-0.345 0.01524,0 0.156784,0.344964 0.203864,0.392045 0.145431,0.14543 0.424487,0.07841 0.61159,0.07841"
           id="path35043" />
      </g>
    </g>
    <g
       id="g35202">
      <path
         style="fill:#7dadb5;fill-opacity:1;stroke:#000000;stroke-width:0.2;stroke-linecap:butt;stroke-linejoin:bevel;stroke-dasharray:none;stroke-opacity:1;paint-order:normal"
         d="m 36.484992,24.078192 c 0.784845,0.148995 2.875741,-2.14768 2.948178,-2.14768 0.03542,0 0.03136,0.424974 0.03136,0.501818 0,0.762321 -0.04527,1.083824 0.470456,1.599544 0.01095,0.01095 0.118882,0.128968 0.125455,0.125455 0.144092,-0.07706 0.273753,-0.178497 0.41063,-0.267745"
         id="path27290-0" />
      <path
         style="fill:none;fill-opacity:1;stroke:#4a838c;stroke-width:0.2;stroke-linecap:butt;stroke-linejoin:bevel;stroke-dasharray:none;stroke-opacity:1;paint-order:normal"
         d="m 37.608282,24.078192 c 0.0773,-0.05448 0.159388,-0.10274 0.23191,-0.163442 0.63826,-0.534232 0.171516,-0.224673 1.003636,0.03136 0.09013,0.02773 0.53318,0.169078 0.53318,0.01485"
         id="path35057" />
    </g>
    <g
       id="g35198">
      <path
         style="fill:#7dadb5;fill-opacity:1;stroke:#000000;stroke-width:0.20775;stroke-linecap:butt;stroke-linejoin:bevel;stroke-dasharray:none;stroke-opacity:1;paint-order:normal"
         d="m 23.217298,23.676102 c 0.520046,0.627407 1.909877,-0.691112 2.188489,-0.691112 0.01287,0 -0.0541,0.536851 -0.02304,0.598957 0.13672,0.273444 1.405246,1.052753 1.405246,0.579087"
         id="path17213-9" />
      <path
         style="fill:none;fill-opacity:1;stroke:#4a838c;stroke-width:0.2;stroke-linecap:butt;stroke-linejoin:bevel;stroke-dasharray:none;stroke-opacity:1;paint-order:normal"
         d="m 24.447931,24.163033 c 0.180777,0.0071 0.35476,-0.08554 0.470455,-0.201237 0.03583,-0.03583 0.168558,0.152105 0.219545,0.172499 0.210751,0.0843 0.44802,0.07839 0.658636,0.123082"
         id="path35045" />
    </g>
    <g
       id="g35220">
      <g
         id="g35357">
        <path
           style="fill:#7dadb5;fill-opacity:1;stroke:#000000;stroke-width:0.2;stroke-linecap:butt;stroke-linejoin:bevel;stroke-dasharray:none;stroke-opacity:1;paint-order:normal"
           d="m 42.816763,24.704061 c 0.802465,0.01981 1.409395,-0.478359 1.948222,-1.017187 0.03841,-0.03841 0.531098,-0.478782 0.53318,-0.470454 0.344512,1.378041 0.870538,0.697592 1.56405,1.328582"
           id="path27286-9"
           sodipodi:nodetypes="cssc" />
        <path
           style="fill:none;fill-opacity:1;stroke:#4a838c;stroke-width:0.2;stroke-linecap:butt;stroke-linejoin:bevel;stroke-dasharray:none;stroke-opacity:1;paint-order:normal"
           d="m 44.983587,24.659663 c 0.807654,-0.211825 0.277792,-0.107249 0.666142,0.117586 0.303937,0.175963 0.680656,0.227906 0.95659,0.195899"
           id="path35065" />
      </g>
    </g>
  </g>
  <g
     inkscape:groupmode="layer"
     id="layer2"
     inkscape:label="Middle Waves"
     style="display:none"
     transform="translate(-14.198165,-20.592153)">
    <path
       style="fill:#7dadb5;fill-opacity:1;stroke:none;stroke-width:0.2;stroke-linecap:butt;stroke-linejoin:bevel;stroke-dasharray:none;stroke-opacity:1;paint-order:normal"
       d="m 29.644565,26.117996 c -0.177631,0.03304 -0.10672,0.169679 -0.148598,0.29531 -0.124656,0.373973 -0.01622,0.627219 0.454638,0.731856 0.722218,0.160491 1.526805,0.142878 2.251007,0.02217 0.14103,-0.0235 0.367453,0.05468 0.498993,-0.01109 0.285475,-0.14274 0.573474,-0.27818 0.876006,-0.399195 0.125815,-0.05032 0.554437,-0.148828 0.554437,-0.303939"
       id="path35804" />
    <g
       id="g35225">
      <path
         style="fill:#7dadb5;fill-opacity:1;stroke:#000000;stroke-width:0.20775;stroke-linecap:round;stroke-linejoin:bevel;stroke-dasharray:none;stroke-opacity:1;paint-order:normal"
         d="m 29.644565,26.117996 c 1.642826,-0.249028 3.053232,-1.669084 4.077513,-2.8796 0.100805,-0.119123 0.727388,-0.944512 0.829329,-0.944512 0.04706,0 0.02015,0.675548 0.02304,0.737179 0.03052,0.640537 0.171955,1.242359 0.460736,1.819908 0.794889,1.589779 2.908703,2.010025 4.492182,2.32672"
         id="path17207-9" />
      <path
         style="fill:#4a838c;fill-opacity:1;stroke:none;stroke-width:0.2;stroke-linecap:butt;stroke-linejoin:bevel;stroke-dasharray:none;stroke-opacity:1;paint-order:normal"
         d="m 33.36826,27.271612 c 0.666552,-0.238229 1.057902,-0.971842 1.37691,-1.556687 0.06032,-0.110601 0.132533,-0.28505 0.203862,-0.392046 0.04473,-0.06709 0.06815,-0.141433 0.109773,-0.203863 0.0087,-0.01305 -0.01109,-0.05813 0,-0.04705 0.115946,0.115947 0.193042,0.30795 0.297955,0.439091 0.390133,0.487668 0.969956,0.727768 1.511373,0.930464"
         id="path35177"
         sodipodi:nodetypes="cssscsc" />
      <path
         style="fill:#a9cbd0;fill-opacity:1;stroke:#6f99a0;stroke-width:0.00296349;stroke-linecap:butt;stroke-linejoin:bevel;stroke-dasharray:none;stroke-opacity:1;paint-order:normal"
         d="m 34.478496,23.665684 c -0.06949,-0.05219 -0.183914,-0.16106 -0.212238,-0.201931 -0.01408,-0.0203 -0.03312,-0.07202 -0.05283,-0.143443 -0.01696,-0.06143 -0.03642,-0.117881 -0.04326,-0.125436 -0.0068,-0.0076 -0.02291,-0.01374 -0.03574,-0.01374 -0.01921,0 -0.0411,0.01724 -0.124574,0.09812 -0.111021,0.107562 -0.216114,0.197536 -0.286795,0.245535 -0.05714,0.03881 -0.156323,0.08973 -0.167499,0.08601 -0.0046,-0.0015 0.05074,-0.0715 0.123047,-0.155464 0.0723,-0.08396 0.200231,-0.239105 0.284284,-0.344761 0.245851,-0.309037 0.333208,-0.414267 0.497686,-0.599498 0.01376,-0.01549 0.01405,-0.0072 0.0094,0.254498 -0.0059,0.332819 0.0065,0.523036 0.05371,0.827948 0.0096,0.06213 0.01558,0.112926 0.0132,0.112885 -0.0024,-3.9e-5 -0.02866,-0.01836 -0.05842,-0.04072 z"
         id="path21618-8" />
    </g>
    <g
       id="g35462">
      <path
         style="fill:none;fill-opacity:1;stroke:#4a838c;stroke-width:0.2;stroke-linecap:butt;stroke-linejoin:bevel;stroke-dasharray:none;stroke-opacity:1;paint-order:normal"
         d="m 42.685943,26.46404 c 0.139631,0.09076 0.178869,0.100936 0.344927,0.100936 0.303813,0 0.495998,-0.151 0.689999,-0.345001 0.04742,-0.04742 0.115503,0.108086 0.156818,0.141137 0.14772,0.118176 0.297125,0.135009 0.486135,0.156818 0.177326,0.02045 0.831136,0.101616 0.831136,-0.05389"
         id="path35063" />
      <g
         id="g35216">
        <g
           id="g35208">
          <path
             style="fill:#7dadb5;fill-opacity:1;stroke:#000000;stroke-width:0.20775;stroke-linecap:butt;stroke-linejoin:bevel;stroke-dasharray:none;stroke-opacity:1;paint-order:normal"
             d="m 35.800241,25.800303 c 0.358091,-0.157308 0.742009,-0.173846 1.119728,-0.281768 1.295429,-0.370123 2.435434,-0.885166 3.551108,-1.628951 0.297846,-0.198567 1.173392,-1.20542 1.400896,-1.20542 0.02178,0 -0.265645,0.551295 -0.195473,1.042525 0.07591,0.53139 0.739474,0.776975 1.140263,0.977372 0.71653,0.358265 1.509214,0.40334 2.280529,0.553842 0.717242,0.139939 1.446534,0.487709 2.164152,0.631234"
             id="path17223-4"
             sodipodi:nodetypes="cssssscc" />
          <path
             style="fill:#4a838c;fill-opacity:1;stroke:none;stroke-width:0.2;stroke-linecap:butt;stroke-linejoin:bevel;stroke-dasharray:none;stroke-opacity:1;paint-order:normal"
             d="m 38.058452,26.092892 c 0.409007,-0.02416 0.767223,-0.179243 1.108872,-0.418396 0.252865,-0.177005 0.534903,-0.31313 0.754031,-0.532258 0.07673,-0.07673 0.132487,-0.154664 0.210685,-0.232863 0.0298,-0.0298 0.119766,-0.0998 0.07762,-0.0998 -0.0072,0 0.152501,0.316095 0.16633,0.343751 0.116258,0.232519 0.328362,0.536784 0.554435,0.687499 0.126161,0.08411 0.244868,0.223435 0.354838,0.332662 0.322719,0.320541 -0.496791,0.84171 -0.100232,1.03863"
             id="path29956-1"
             sodipodi:nodetypes="csssssssc" />
          <path
             style="fill:#a9cbd0;fill-opacity:1;stroke:none;stroke-width:0.00592698;stroke-linecap:butt;stroke-linejoin:bevel;stroke-dasharray:none;stroke-opacity:1;paint-order:normal"
             d="m 41.264024,23.302077 c 0.157932,-0.155897 0.396063,-0.374366 0.401801,-0.368627 0.0016,0.0015 -0.0097,0.04639 -0.02495,0.09973 -0.02941,0.102997 -0.05929,0.239229 -0.05929,0.27035 0,0.01046 -0.0047,0.01874 -0.01053,0.01874 -0.0058,0 -0.108998,0.03044 -0.229346,0.06765 -0.120349,0.03721 -0.224108,0.06923 -0.230577,0.07117 -0.0065,0.0019 0.06234,-0.06962 0.1529,-0.159012 z"
             id="path28496-0" />
          <path
             style="fill:none;fill-opacity:1;stroke:#4a838c;stroke-width:0.2;stroke-linecap:butt;stroke-linejoin:bevel;stroke-dasharray:none;stroke-opacity:1;paint-order:normal"
             d="m 40.525689,24.636986 c 0.356931,-0.103612 0.42563,-0.10535 0.733137,-0.251782 0.02162,-0.01029 0.106251,-0.132494 0.109772,-0.125454 0.06392,0.127844 0.06482,0.265554 0.156816,0.392045 0.233074,0.320475 0.865246,0.40784 1.160455,0.407623"
             id="path35059" />
        </g>
      </g>
    </g>
    <g
       id="g35905">
      <path
         style="fill:#7dadb5;fill-opacity:1;stroke:none;stroke-width:0.2;stroke-linecap:butt;stroke-linejoin:bevel;stroke-dasharray:none;stroke-opacity:1;paint-order:normal"
         d="m 14.30204,26.417475 11.833077,2.180308 1.942079,-1.403765 -6.085819,-1.378955 c 0,0 -7.791531,0.941519 -7.689337,0.602412"
         id="path35895"
         sodipodi:nodetypes="ccccc" />
      <g
         id="g35891">
        <path
           style="fill:none;fill-opacity:1;stroke:#4a838c;stroke-width:0.147147;stroke-linecap:butt;stroke-linejoin:bevel;stroke-dasharray:none;stroke-opacity:1;paint-order:normal"
           d="m 23.783342,27.972663 c 0.03379,0.0027 0.06798,0.0023 0.101366,0.0081 0.343489,0.05976 0.573401,-0.274728 0.899938,-0.392281 0.190609,-0.06862 0.06172,-0.01254 0.19614,-0.04615 0.0118,-0.0029 0.03351,-0.02365 0.03462,-0.01154 0.05026,0.552803 0.241538,0.633593 0.819174,0.773022 0.410873,0.09918 0.39228,0.212193 0.39228,0.02382"
           id="path35351" />
        <g
           id="g35189">
          <path
             style="fill:#7dadb5;fill-opacity:1;stroke:#000000;stroke-width:0.20775;stroke-linecap:round;stroke-linejoin:bevel;stroke-dasharray:none;stroke-opacity:1;paint-order:normal"
             d="m 14.30204,26.417475 c 1.169862,0.119521 2.124265,-0.350818 3.109968,-0.898435 1.647398,-0.915219 3.36286,-1.897286 4.791662,-3.133009 0.398402,-0.344561 0.750457,-0.741188 1.10577,-1.128803 0.14503,-0.158222 0.288116,-0.311153 0.437698,-0.460737 0.02715,-0.02715 0.06912,-0.130557 0.06912,-0.09213 0,0.350606 -0.267997,0.810264 -0.368588,1.128803 -0.186436,0.590341 -0.295899,1.220432 -0.230366,1.842945 0.278661,2.647325 2.479316,2.623543 4.582675,3.224505"
             id="path16836-6"
             sodipodi:nodetypes="ccssssccc" />
          <path
             style="fill:#a9cbd0;fill-opacity:1;stroke:#6f99a0;stroke-width:0.004191;stroke-linecap:butt;stroke-linejoin:bevel;stroke-dasharray:none;stroke-opacity:1;paint-order:normal"
             d="m 20.989384,23.915173 c -0.04795,-0.0058 -0.06593,-0.05618 -0.04871,-0.136505 0.01406,-0.06557 0.02837,-0.09467 0.132925,-0.270385 0.04328,-0.07274 0.07903,-0.137607 0.07944,-0.144153 4.24e-4,-0.0066 0.106449,-0.09021 0.235635,-0.185927 0.525189,-0.389107 0.92683,-0.728383 1.283618,-1.084303 0.200073,-0.199587 0.627894,-0.654865 0.910724,-0.969173 0.02261,-0.02513 0.04132,-0.04291 0.04158,-0.03951 7.41e-4,0.0097 -0.07873,0.209158 -0.163697,0.410842 -0.198642,0.471524 -0.335034,1.060273 -0.363739,1.570116 l -0.0076,0.135314 -0.0344,0.0075 c -0.110748,0.02414 -0.258285,0.114686 -0.509528,0.312713 -0.225397,0.177657 -0.334034,0.250574 -0.474494,0.31848 -0.14505,0.07013 -0.191464,0.07371 -0.295993,0.02286 -0.0491,-0.02388 -0.09779,-0.03955 -0.122943,-0.03955 -0.02291,0 -0.109144,0.017 -0.191643,0.03778 -0.102262,0.02576 -0.190177,0.04016 -0.276251,0.04526 -0.06944,0.0041 -0.133738,0.0087 -0.142887,0.0102 -0.0091,0.0015 -0.03256,7.94e-4 -0.05203,-0.0016 z"
             id="path19302-5" />
          <path
             style="fill:none;fill-opacity:1;stroke:#4a838c;stroke-width:0.2;stroke-linecap:butt;stroke-linejoin:bevel;stroke-dasharray:none;stroke-opacity:1;paint-order:normal"
             d="m 21.305238,27.004065 c 0.616986,-0.02635 1.081795,-0.340611 1.558832,-0.658635 0.02049,-0.01366 0.07786,0.193574 0.09409,0.219546 0.118496,0.189592 0.286412,0.206642 0.5175,0.282271 0.450539,0.147449 0.926411,0.119155 1.370077,0.250909"
             id="path35039" />
          <path
             style="fill:none;fill-opacity:1;stroke:#4a838c;stroke-width:0.2;stroke-linecap:butt;stroke-linejoin:bevel;stroke-dasharray:none;stroke-opacity:1;paint-order:normal"
             d="m 17.720438,25.980016 c 0.162045,-0.02979 0.331174,-0.03339 0.486136,-0.08936 0.229395,-0.08285 0.804077,-0.795467 0.846817,-0.752727 0.579471,0.579471 1.63184,0.470454 2.399316,0.470454 0.09912,0 0.439561,0.08319 0.43867,-0.07437"
             id="path35041" />
        </g>
      </g>
    </g>
    <path
       style="fill:none;fill-opacity:1;stroke:none;stroke-width:0.2;stroke-linecap:butt;stroke-linejoin:bevel;stroke-dasharray:none;stroke-opacity:1;paint-order:normal"
       d="m 30.825331,26.19079 c 0.296778,0.06099 0.607253,-0.04451 0.867593,-0.174678 0.09467,-0.04734 0.0217,0.239242 0.109773,0.297954 0.209296,0.139531 0.514326,0.131275 0.752726,0.156819 0.08724,0.0093 0.454774,0.0016 0.454774,0.113218"
       id="path35808" />
  </g>
  <g
     inkscape:groupmode="layer"
     id="layer3"
     inkscape:label="Front Waves"
     style="display:inline"
     transform="translate(-14.198165,-20.592153)">
    <g
       id="g35620">
      <g
         id="g35772">
        <g
           id="g35624">
          <path
             style="fill:#7dadb5;fill-opacity:1;stroke:#000000;stroke-width:0.2;stroke-linecap:butt;stroke-linejoin:bevel;stroke-dasharray:none;stroke-opacity:1;paint-order:normal"
             d="m 25.548971,27.281566 c 0.04436,-0.04567 0.07695,-0.10694 0.133065,-0.137 0.197869,-0.10599 0.435944,-0.113263 0.643144,-0.199597 0.413052,-0.172104 0.797288,-0.465175 1.197581,-0.665322 0.0191,-0.0095 0.387999,-0.232971 0.399193,-0.221775 0.09363,0.09363 0.07701,0.45533 0.288309,0.643146 0.702111,0.6241 1.935945,0.844044 2.816531,1.020161"
             id="path26542-4" />
          <path
             style="fill:none;fill-opacity:1;stroke:#4a838c;stroke-width:0.2;stroke-linecap:butt;stroke-linejoin:bevel;stroke-dasharray:none;stroke-opacity:1;paint-order:normal"
             d="m 27.550533,27.726436 c 0.571196,0.127468 0.907418,-0.330324 1.476486,-0.330324"
             id="path35353" />
        </g>
      </g>
    </g>
    <path
       style="fill:#7dadb5;fill-opacity:1;stroke:#000000;stroke-width:0.2;stroke-linecap:butt;stroke-linejoin:bevel;stroke-dasharray:none;stroke-opacity:1;paint-order:normal"
       d="m 37.613488,27.610292 c 1.582772,0.08252 2.748931,-0.908206 3.747984,-1.907258 0.110268,-0.110269 -0.01873,0.311903 -0.04435,0.465726 -0.08215,0.492878 -0.164132,1.083138 0.399192,1.308467 0.433012,0.173205 2.372985,0.171977 2.372985,0.365557"
       id="path24763-2" />
    <path
       style="display:inline;fill:#7dadb5;fill-opacity:1;stroke:#000000;stroke-width:0.2;stroke-linecap:butt;stroke-linejoin:bevel;stroke-dasharray:none;stroke-opacity:1;paint-order:normal"
       d="m 29.997618,26.49592 c 1.582772,0.08252 2.704581,-0.44248 3.703634,-1.441532 0.110268,-0.110269 0.02562,-0.153823 0,0 -0.08215,0.492878 -0.164132,1.083138 0.399192,1.308467 0.433012,0.173205 2.372985,0.171977 2.372985,0.365557"
       id="path24763-2-5"
       sodipodi:nodetypes="cscsc" />
    <path
       style="fill:#7dadb5;fill-opacity:1;stroke:none;stroke-width:0.2;stroke-linecap:butt;stroke-linejoin:bevel;stroke-dasharray:none;stroke-opacity:1;paint-order:normal"
       d="m 32.721362,27.281566 c 0.26113,0.260863 0.566295,0.514199 0.866338,0.728514 0.256916,0.183512 0.415764,0.4465 0.69859,0.598792 0.649343,0.349646 1.994847,0.482637 2.727822,0.299394 0.411626,-0.102907 1.209395,-1.004411 1.441532,-1.28629 0.294929,-0.358127 0.607912,-0.729888 0.931453,-1.053428 0.01434,-0.01434 0.15607,-0.186612 0.155242,-0.188508 -0.02286,-0.05235 -0.05187,-0.101809 -0.07781,-0.152714"
       id="path35794" />
    <g
       id="g35790">
      <path
         style="fill:none;fill-opacity:1;stroke:#4a838c;stroke-width:0.2;stroke-linecap:butt;stroke-linejoin:bevel;stroke-dasharray:none;stroke-opacity:1;paint-order:normal"
         d="m 34.585965,28.298386 c 0.336637,0.161038 0.799801,-0.387538 1.097502,-0.288306 0.118192,0.0394 0.213916,0.20016 0.332661,0.266128 0.305612,0.169786 0.702866,0.17535 1.042339,0.199599"
         id="path35023" />
      <g
         id="g35325"
         style="display:inline">
        <path
           style="fill:#7dadb5;fill-opacity:1;stroke:#000000;stroke-width:0.2;stroke-linecap:butt;stroke-linejoin:bevel;stroke-dasharray:none;stroke-opacity:1;paint-order:normal"
           d="m 32.721361,27.281566 c 0.932336,0.241976 1.849435,-0.548574 2.571816,-1.05424 0.392993,-0.275096 3.519543,-2.759997 3.606813,-2.759997 0.0487,0 0.03136,0.711373 0.03136,0.752727 0,0.766196 0.04768,1.383053 0.53318,2.00727 1.429009,1.837297 2.010148,2.260145 4.261591,2.447766"
           id="path26546-9"
           sodipodi:nodetypes="cssssc" />
        <path
           style="fill:#a9cbd0;fill-opacity:1;stroke:none;stroke-width:0.011854;stroke-linecap:butt;stroke-linejoin:bevel;stroke-dasharray:none;stroke-opacity:1;paint-order:normal"
           d="m 38.24054,25.600553 c -0.05265,-0.02864 -0.109132,-0.137142 -0.171688,-0.329817 -0.06548,-0.201688 -0.131876,-0.327191 -0.202808,-0.383371 -0.0311,-0.02463 -0.12903,-0.08327 -0.21762,-0.130297 l -0.161076,-0.08551 0.106492,-0.08543 c 0.133057,-0.106737 0.780315,-0.604379 1.031719,-0.793234 l 0.188183,-0.141362 0.01003,0.566534 c 0.01035,0.583668 0.03627,0.910919 0.08548,1.078687 0.0057,0.01926 -0.01445,0.03613 -0.07743,0.06496 -0.04678,0.02142 -0.140557,0.07655 -0.208388,0.122511 -0.12043,0.0816 -0.248544,0.138448 -0.311512,0.138215 -0.01725,-6.3e-5 -0.04937,-0.0099 -0.07138,-0.02188 z"
           id="path28238-6" />
        <path
           style="fill:none;fill-opacity:1;stroke:#4a838c;stroke-width:0.2;stroke-linecap:butt;stroke-linejoin:bevel;stroke-dasharray:none;stroke-opacity:1;paint-order:normal"
           d="m 36.005039,26.46404 c 0.201801,0.05792 0.647007,-0.383395 0.776211,-0.383395 0.02843,0 0.100669,0.266935 0.221774,0.288306 0.477676,0.0843 1.002861,0.06653 1.485887,0.06653 0.124703,0 0.349795,0.07035 0.421261,-0.04747"
           id="path35257" />
      </g>
    </g>
  </g>
</svg>
